<?xml version="1.0" standalone="no"?>
<!DOCTYPE svg PUBLIC "-//W3C//DTD SVG 20010904//EN"
 "http://www.w3.org/TR/2001/REC-SVG-20010904/DTD/svg10.dtd">
<svg version="1.0" xmlns="http://www.w3.org/2000/svg"
 width="768.000000pt" height="768.000000pt" viewBox="0 0 768.000000 768.000000"
 preserveAspectRatio="xMidYMid meet">

<g transform="translate(0.000000,768.000000) scale(0.100000,-0.100000)"
fill="#000000" stroke="none">
<path d="M3470 7545 c-432 -45 -809 -145 -1177 -312 -112 -51 -123 -58 -123
-82 0 -14 27 -288 61 -609 34 -320 59 -585 56 -589 -6 -6 -212 85 -857 376
l-265 120 -84 -87 c-291 -302 -563 -733 -730 -1155 -209 -532 -296 -1114 -247
-1671 9 -104 19 -192 21 -196 7 -11 62 -23 665 -151 289 -61 528 -114 532
-118 8 -7 2 -14 -447 -506 -165 -181 -317 -348 -338 -372 l-39 -43 47 -88
c374 -692 1001 -1275 1725 -1603 296 -134 738 -269 893 -273 l48 -1 279 485
c153 267 292 507 307 533 l29 48 151 -263 c83 -145 219 -382 303 -528 84 -146
156 -270 161 -276 10 -13 128 7 299 51 832 209 1565 697 2081 1386 104 139
232 337 290 452 l20 38 -168 182 c-92 100 -197 214 -233 252 -227 244 -453
496 -448 500 2 2 276 63 608 135 333 72 612 134 620 139 22 12 38 164 46 431
23 791 -208 1560 -664 2215 -82 117 -233 305 -321 396 l-76 81 -260 -117
c-143 -64 -390 -176 -550 -247 -159 -72 -310 -139 -334 -149 l-43 -19 6 42 c3
24 13 111 21 193 9 83 36 340 60 572 25 231 45 435 45 451 0 28 -6 32 -114 80
-309 138 -649 232 -1021 283 -198 27 -639 34 -835 14z m1280 -2569 c506 -505
920 -920 920 -922 0 -2 -832 -4 -1850 -4 -1017 0 -1850 1 -1850 3 0 8 1846
1847 1852 1844 4 -1 421 -415 928 -921z m938 -1341 c5 -4 -1855 -1845 -1864
-1845 -7 0 -1839 1840 -1842 1851 -3 7 3696 1 3706 -6z"/>
</g>
</svg>
