<svg xmlns="http://www.w3.org/2000/svg" width="351.388" height="71" viewBox="0 0 351.388 71">
  <g id="グループ_4" data-name="グループ 4" transform="translate(-412.612 -515)">
    <path id="パス_28" data-name="パス 28" d="M1.08,27.406V24.29a4.157,4.157,0,0,0,.089-.416,26.676,26.676,0,0,1,1.339-6.188A25.368,25.368,0,0,1,8.041,8.62c.186-.2.327-.141.528-.059,1.874.848,3.756,1.681,5.63,2.521l1.584.692a8.841,8.841,0,0,0-.074-.974c-.245-2.3-.491-4.6-.744-6.9a.409.409,0,0,1,.26-.476,24.825,24.825,0,0,1,6.768-2.134c.818-.134,1.644-.238,2.469-.357h3.109a4.157,4.157,0,0,0,.416.089c.87.126,1.74.216,2.6.372a24.141,24.141,0,0,1,6.128,1.993c.223.1.372.2.335.506-.171,1.487-.32,2.975-.476,4.418-.119,1.13-.231,2.231-.35,3.436a3.674,3.674,0,0,0,.357-.126C38.86,10.606,41.136,9.6,43.4,8.575a.469.469,0,0,1,.662.141c.454.558.952,1.078,1.4,1.644a24.49,24.49,0,0,1,5.1,11.55c.126.788.231,1.584.35,2.38v3.116c-.089.58-.193,1.153-.245,1.74,0,.29-.164.372-.424.424-1.748.364-3.5.744-5.206,1.116l-2.439.521a3.644,3.644,0,0,0,.29.394c1.636,1.822,3.265,3.644,4.916,5.444a.5.5,0,0,1,.082.707,25.137,25.137,0,0,1-5.042,6.366,24.773,24.773,0,0,1-11.156,5.95c-.431.1-.848.231-1.279.35h-.26q-2.038-3.533-4.083-7.043H25.92l-4.075,7.043h-.26a3.867,3.867,0,0,0-.565-.186A24.9,24.9,0,0,1,4.1,37.669a.4.4,0,0,1,.059-.558C5.55,35.624,6.926,34.062,8.3,32.53c.372-.409.744-.833,1.153-1.309l-.528-.126c-2.372-.506-4.752-1.019-7.132-1.487-.3-.059-.446-.149-.469-.483C1.273,28.5,1.162,27.971,1.08,27.406Zm12.041-2.789H38.86c-.164-.193-.26-.32-.372-.439q-6.069-6.091-12.13-12.145c-.275-.275-.431-.3-.744,0q-6.069,6.106-12.16,12.174C13.373,24.312,13.284,24.431,13.121,24.617Zm0,2.454c.171.193.26.3.357.4q6.076,6.106,12.174,12.182c.268.268.416.26.684,0l12.2-12.2c.1-.1.178-.223.32-.394Z" transform="translate(413.032 524.57)" fill="#71362e" stroke="#d6d6d6" stroke-width="3"/>
    <text id="OndoMENU" transform="translate(467 572)" fill="#d6d6d6" font-size="60" font-family="SFCompactRounded-Regular, SF Compact Rounded"><tspan x="0" y="0">OndoMENU</tspan></text>
  </g>
</svg>
