<svg xmlns="http://www.w3.org/2000/svg" viewBox="0 0 370.84 66.53"><path d="M117,17.5H89.32V15.31h7.62a31.62,31.62,0,0,0-1-4.23H91V8.89h11V6.34h2.52V8.89h11v2.19h-4.8c-.51,1.89-.81,2.76-1.32,4.23H117ZM113.68,34h-2.52V32.62h-16V34H92.68V19.78h21Zm-2.52-12.12h-16v3.15h16Zm0,5.22h-16v3.36h16Zm-4.5-11.82A37.4,37.4,0,0,0,108,11.08H98.44a41.4,41.4,0,0,1,.87,4.23Z" transform="translate(-1.08 -0.93)" style="fill:#221815"/><path d="M137.26,30.33a99.82,99.82,0,0,1-11.67,2.59l-.51-2.43c2-.18,4.41-.57,6.42-1a36.23,36.23,0,0,0,2-7.26l2.28.45A50.46,50.46,0,0,1,134.05,29c1.41-.33,2.25-.57,3.06-.81Zm-.15-23.39V9.16H125.26V6.94Zm-.81,14.22H126.19V11.74H136.3Zm-8.64,7.44a28.81,28.81,0,0,0-1-5.79l2.13-.54a28.31,28.31,0,0,1,1.08,5.85Zm6.39-14.76h-5.61v5.25h5.61Zm1.86,18.36a20.42,20.42,0,0,0,6.48-3.66L144,30a20.67,20.67,0,0,1-6.75,4.21ZM153,9.16h-6.21c-.09.39-.57,2.22-.69,2.58h5.76V28H139.06V11.74h4.68a18.61,18.61,0,0,0,.6-2.58h-6.15V6.94H153Zm-3.42,4.68h-8.34v2.64h8.34Zm0,4.65h-8.34V21.1h8.34Zm0,4.59h-8.34v2.85h8.34Zm-1.2,5.49a14.16,14.16,0,0,0,5.07,3.66l-1.65,2A20.57,20.57,0,0,1,146.71,30Z" transform="translate(-1.08 -0.93)" style="fill:#221815"/><path d="M183.7,17h-7.41v3.66h11.58v2.28H176.29v8h2.55a52.85,52.85,0,0,0,3-7.08l2.52.66a42.71,42.71,0,0,1-2.85,6.42h7v2.25H161.71V30.88H168a41,41,0,0,0-2.46-6.18l2.4-.78a39.67,39.67,0,0,1,2.7,7h3.21V22.93H162.19V20.65h11.64V17h-7.41V15c-2.1,1.11-3.09,1.53-4.14,2l-1.41-2.37A30.59,30.59,0,0,0,174.1,6h2.16a34.92,34.92,0,0,0,13.2,8.67L188.08,17a34.08,34.08,0,0,1-4.38-2.16Zm-.21-2.28a38,38,0,0,1-8.37-6.45,32.59,32.59,0,0,1-8.25,6.45Z" transform="translate(-1.08 -0.93)" style="fill:#221815"/><path d="M223.78,7.36v5.46H202v6.63c0,8.4-2.25,13-3.06,14.58l-2.07-1.92a27.29,27.29,0,0,0,2.73-12.57V7.36ZM221.44,9.1H202v2h19.47Zm-2.76,17.55a22.73,22.73,0,0,1,2,4l-2,.66c-.15-.39-.21-.6-.45-1.14-1.2.18-7.5.84-11.13,1l-.36-2c.24,0,5.25-.24,5.76-.24V26.14h-6.9v7.92h-2.25V24.34h9.15v-1.8h-8V17.26h8V15.67c-1.26,0-6.9.15-8,.15l-.27-1.68c9,0,13.74-.3,18-1l.66,1.68a58.77,58.77,0,0,1-8.16.78v1.65h8.52v5.28h-8.52v1.8h9.72v7.71a1.78,1.78,0,0,1-2,2h-4l-.45-2.19,3.57,0c.6,0,.6-.42.6-.63V26.14h-7.41v2.64c1.71-.12,2.37-.21,2.79-.24-.42-.87-.45-1-.66-1.32Zm-6.21-7.8h-5.79v2.07h5.79Zm8.46,0h-6.24v2.07h6.24Z" transform="translate(-1.08 -0.93)" style="fill:#221815"/><path d="M242.65,24.13A19.74,19.74,0,0,1,240,19.51V34.12h-2.31V19.3a29.79,29.79,0,0,1-3.78,8.07l-1.11-3a29,29,0,0,0,4.68-10h-4.17V12.07h4.38V6.28H240v5.79h3.72v2.34H240v1.95A23.45,23.45,0,0,0,244.12,22Zm11.13,10h-2.37v-11a26.9,26.9,0,0,1-7.26,8.58l-1.71-2.14a27.12,27.12,0,0,0,8.25-9.08h-7V18.19h7.71V13.51H247.6a16.78,16.78,0,0,1-2.16,3.81l-2.22-1.38c1.5-1.86,2.73-3.9,3.69-8.85l2.49.33a27.35,27.35,0,0,1-.93,3.81h2.94V6.28h2.37v5h6.6v2.28h-6.6v4.68h7.29V20.5h-6.45a24,24,0,0,0,6.87,8.85l-1.38,2.52A23.42,23.42,0,0,1,253.78,23Z" transform="translate(-1.08 -0.93)" style="fill:#221815"/><path d="M285.16,30.33c-4.32,1-9.9,1.9-15.63,2.62l-.36-2.49c1.26-.09,2.85-.25,6.63-.79V20.26h-6V17.92h14.31v2.34h-5.85v9.06c4.32-.72,5.61-1,6.75-1.26Zm2.37-24c0,1,0,2.22,0,5h9.51V13.6h-9.42c.33,5.58.66,11.34,3.81,15.9.33.48,1.17,1.67,2,1.67s1.5-2,1.68-4.94l2.31,1.05c-.33,2.28-.93,6.75-3.69,6.75-3.33,0-5.79-5-6.54-7.32-1.53-4.62-1.68-7-2-13.11H269.29V11.26h15.78c-.06-1.41-.09-3.21-.09-5Zm6.54,4.77a23.44,23.44,0,0,0-4.68-3.12l1.38-1.8a29.67,29.67,0,0,1,4.83,3.06Z" transform="translate(-1.08 -0.93)" style="fill:#221815"/><path d="M327.13,16.81H311.26V15.13a34.8,34.8,0,0,1-5.34,2.79l-1.23-2.43C313.63,12,317,7.12,317.8,5.92h2.67a29,29,0,0,0,13.11,9.66L332.26,18a32.42,32.42,0,0,1-5.13-2.82Zm-2.64,7.11a43.83,43.83,0,0,1,7.35,8.91l-2.16,1.44c-.48-.81-.84-1.38-1.47-2.31-5,.72-17.25,1.26-21.87,1.26l-.27-2.47h4.14A51,51,0,0,0,313.9,23h-8.22V20.68h26.79V23H316.81a82.07,82.07,0,0,1-3.87,7.71c.75,0,4.11-.12,4.74-.16,3.66-.14,6.75-.41,9-.62a55.18,55.18,0,0,0-4.14-4.65Zm1.68-9.39a30.73,30.73,0,0,1-7-6.48,27.91,27.91,0,0,1-7,6.48Z" transform="translate(-1.08 -0.93)" style="fill:#221815"/><path d="M348.43,34.12H346V22a27.93,27.93,0,0,1-4.11,3.18l-1-2.46a21.71,21.71,0,0,0,8.79-9.3h-8.4V11.14H346V6.25h2.43v4.89h3.87v2.28A21,21,0,0,1,349,18.73a21.64,21.64,0,0,0,4.32,3.93L352,24.85a20.26,20.26,0,0,1-3.57-3.6ZM361.72,6.25v8.67h6.6v2.46h-6.6v13.2H369V33H351.52V30.58h7.68V17.38h-6.27V14.92h6.27V6.25Z" transform="translate(-1.08 -0.93)" style="fill:#221815"/><path d="M102.41,54.35c0,4.65-2.83,7.11-6.27,7.11s-6.06-2.77-6.06-6.85c0-4.28,2.66-7.08,6.26-7.08S102.41,50.35,102.41,54.35Zm-10.47.22c0,2.88,1.56,5.47,4.3,5.47s4.32-2.55,4.32-5.61c0-2.68-1.4-5.48-4.3-5.48S91.94,51.61,91.94,54.57Z" transform="translate(-1.08 -0.93)" style="fill:#221815"/><path d="M110.6,54.17c0-1,0-1.82-.08-2.62h1.56l.1,1.6h0a3.56,3.56,0,0,1,3.2-1.82c1.34,0,3.42.8,3.42,4.12v5.79h-1.76V55.65c0-1.56-.58-2.86-2.24-2.86a2.5,2.5,0,0,0-2.36,1.8,2.53,2.53,0,0,0-.12.82v5.83H110.6Z" transform="translate(-1.08 -0.93)" style="fill:#221815"/><path d="M136.06,47v11.7c0,.86,0,1.85.08,2.51h-1.58l-.08-1.69h0a3.59,3.59,0,0,1-3.3,1.91c-2.34,0-4.14-2-4.14-4.93,0-3.22,2-5.2,4.34-5.2a3.24,3.24,0,0,1,2.92,1.48h0V47Zm-1.76,8.46a3.11,3.11,0,0,0-.08-.74,2.59,2.59,0,0,0-2.54-2c-1.82,0-2.9,1.6-2.9,3.74,0,2,1,3.59,2.86,3.59a2.66,2.66,0,0,0,2.58-2.11,3.06,3.06,0,0,0,.08-.76Z" transform="translate(-1.08 -0.93)" style="fill:#221815"/><path d="M153.75,56.31a4.75,4.75,0,0,1-4.83,5.15c-2.62,0-4.64-1.92-4.64-5,0-3.24,2.12-5.14,4.8-5.14S153.75,53.35,153.75,56.31Zm-7.69.1c0,2.12,1.22,3.72,2.94,3.72s2.94-1.58,2.94-3.76c0-1.64-.82-3.72-2.9-3.72S146.06,54.57,146.06,56.41Z" transform="translate(-1.08 -0.93)" style="fill:#221815"/><path d="M183.62,55.31c-.1-1.88-.22-4.14-.2-5.82h-.06c-.46,1.58-1,3.26-1.7,5.12l-2.38,6.55H178l-2.18-6.43c-.64-1.9-1.18-3.64-1.56-5.24h0c0,1.68-.14,3.94-.26,6l-.36,5.79H171.9l.94-13.49h2.22l2.3,6.52c.56,1.66,1,3.14,1.36,4.54h.06c.34-1.36.82-2.84,1.42-4.54l2.4-6.52h2.22l.84,13.49H184Z" transform="translate(-1.08 -0.93)" style="fill:#221815"/><path d="M195.26,56.71a3.11,3.11,0,0,0,3.32,3.37,6.53,6.53,0,0,0,2.68-.5l.3,1.25a7.64,7.64,0,0,1-3.22.61c-3,0-4.76-2-4.76-4.89s1.72-5.22,4.54-5.22c3.16,0,4,2.78,4,4.56a6.64,6.64,0,0,1-.06.82Zm5.16-1.26c0-1.12-.46-2.86-2.44-2.86-1.78,0-2.56,1.64-2.7,2.86Z" transform="translate(-1.08 -0.93)" style="fill:#221815"/><path d="M212.42,48.77v2.78h2.52v1.34h-2.52v5.22c0,1.2.34,1.89,1.32,1.89a4.41,4.41,0,0,0,1-.12l.08,1.32a4.54,4.54,0,0,1-1.56.24,2.47,2.47,0,0,1-1.9-.74,3.63,3.63,0,0,1-.68-2.53V52.89h-1.5V51.55h1.5V49.23Z" transform="translate(-1.08 -0.93)" style="fill:#221815"/><path d="M228.28,61.24,228.14,60h-.06a3.58,3.58,0,0,1-3,1.45,2.76,2.76,0,0,1-3-2.79c0-2.34,2.08-3.62,5.82-3.6v-.2a2,2,0,0,0-2.2-2.24,4.82,4.82,0,0,0-2.52.72l-.4-1.16a6,6,0,0,1,3.18-.86c3,0,3.68,2,3.68,4v3.63a13.71,13.71,0,0,0,.16,2.32Zm-.26-5c-1.92,0-4.1.3-4.1,2.18a1.56,1.56,0,0,0,1.66,1.69,2.42,2.42,0,0,0,2.34-1.63A1.84,1.84,0,0,0,228,58Z" transform="translate(-1.08 -0.93)" style="fill:#221815"/><path d="M238.56,47h1.76V61.24h-1.76Z" transform="translate(-1.08 -0.93)" style="fill:#221815"/><path d="M269,60.79a8.44,8.44,0,0,1-3.56.65c-3.8,0-6.66-2.41-6.66-6.83a6.71,6.71,0,0,1,7-7.08,7.23,7.23,0,0,1,3.2.6l-.42,1.42a6.34,6.34,0,0,0-2.72-.56c-3.16,0-5.26,2-5.26,5.56,0,3.3,1.9,5.42,5.18,5.42a7.14,7.14,0,0,0,2.84-.55Z" transform="translate(-1.08 -0.93)" style="fill:#221815"/><path d="M285.88,56.31c0,3.58-2.48,5.15-4.82,5.15-2.62,0-4.64-1.92-4.64-5,0-3.24,2.12-5.14,4.8-5.14S285.88,53.35,285.88,56.31Zm-7.68.1c0,2.12,1.22,3.72,2.94,3.72s2.94-1.58,2.94-3.76c0-1.64-.82-3.72-2.9-3.72S278.2,54.57,278.2,56.41Z" transform="translate(-1.08 -0.93)" style="fill:#221815"/><path d="M293.68,60.2a1.19,1.19,0,0,1,1.2-1.27,1.27,1.27,0,1,1-1.2,1.27Z" transform="translate(-1.08 -0.93)" style="fill:#221815"/><path d="M303.1,63.7a28.78,28.78,0,0,0,1.2-4.78l2-.21a24.26,24.26,0,0,1-1.9,4.87Z" transform="translate(-1.08 -0.93)" style="fill:#221815"/><path d="M324.68,47.75h1.74v12h5.76v1.47h-7.5Z" transform="translate(-1.08 -0.93)" style="fill:#221815"/><path d="M342.18,48.77v2.78h2.52v1.34h-2.52v5.22c0,1.2.34,1.89,1.32,1.89a4.41,4.41,0,0,0,1-.12l.08,1.32a4.54,4.54,0,0,1-1.56.24,2.47,2.47,0,0,1-1.9-.74,3.63,3.63,0,0,1-.68-2.53V52.89H339V51.55h1.5V49.23Z" transform="translate(-1.08 -0.93)" style="fill:#221815"/><path d="M361,47v11.7c0,.86,0,1.85.08,2.51h-1.58l-.08-1.69h0a3.59,3.59,0,0,1-3.3,1.91c-2.34,0-4.14-2-4.14-4.93,0-3.22,2-5.2,4.34-5.2a3.24,3.24,0,0,1,2.92,1.48h0V47Zm-1.76,8.46a3.11,3.11,0,0,0-.08-.74,2.59,2.59,0,0,0-2.54-2c-1.82,0-2.9,1.6-2.9,3.74,0,2,1,3.59,2.86,3.59a2.66,2.66,0,0,0,2.58-2.11,3.06,3.06,0,0,0,.08-.76Z" transform="translate(-1.08 -0.93)" style="fill:#221815"/><path d="M369.54,60.2a1.19,1.19,0,0,1,1.2-1.27,1.27,1.27,0,1,1-1.2,1.27Z" transform="translate(-1.08 -0.93)" style="fill:#221815"/><path d="M1.08,36.53V32.34a5.59,5.59,0,0,0,.12-.56A35.87,35.87,0,0,1,3,23.46a34.11,34.11,0,0,1,7.44-12.19c.25-.27.44-.19.71-.08,2.52,1.14,5.05,2.26,7.57,3.39l2.13.93c0-.51-.06-.91-.1-1.31-.33-3.09-.66-6.19-1-9.28a.55.55,0,0,1,.35-.64,33.38,33.38,0,0,1,9.1-2.87c1.1-.18,2.21-.32,3.32-.48h4.18a5.59,5.59,0,0,0,.56.12c1.17.17,2.34.29,3.5.5A32.46,32.46,0,0,1,49,4.23c.3.14.5.27.45.68-.23,2-.43,4-.64,5.94-.16,1.52-.31,3-.47,4.62a4.94,4.94,0,0,0,.48-.17c3.06-1.36,6.12-2.71,9.17-4.09a.63.63,0,0,1,.89.19c.61.75,1.28,1.45,1.88,2.21a32.93,32.93,0,0,1,6.86,15.53c.17,1.06.31,2.13.47,3.2v4.19c-.12.78-.26,1.55-.33,2.34,0,.39-.22.5-.57.57-2.35.49-4.7,1-7,1.5l-3.28.7a4.9,4.9,0,0,0,.39.53c2.2,2.45,4.39,4.9,6.61,7.32a.67.67,0,0,1,.11.95A33.8,33.8,0,0,1,57.24,59a33.31,33.31,0,0,1-15,8c-.58.14-1.14.31-1.72.47h-.35Q37.43,62.72,34.68,58h-.2L29,67.47h-.35a5.2,5.2,0,0,0-.76-.25A33.7,33.7,0,0,1,9.44,56.51a34,34,0,0,1-4.3-6.18.54.54,0,0,1,.08-.75c1.87-2,3.72-4.1,5.57-6.16.5-.55,1-1.12,1.55-1.76l-.71-.17c-3.19-.68-6.39-1.37-9.59-2-.4-.08-.6-.2-.63-.65C1.34,38,1.19,37.29,1.08,36.53Zm16.19-3.75H51.88c-.22-.26-.35-.43-.5-.59Q43.22,24,35.07,15.86c-.37-.37-.58-.4-1,0q-8.16,8.21-16.35,16.37C17.61,32.37,17.49,32.53,17.27,32.78Zm0,3.3c.23.26.35.41.48.54Q25.92,44.83,34.12,53c.36.36.56.35.92,0l16.4-16.41c.13-.13.24-.3.43-.53Z" transform="translate(-1.08 -0.93)" style="fill:#71362e"/></svg>